<svg width="141" height="46" viewBox="0 0 141 46" fill="none" xmlns="http://www.w3.org/2000/svg">
<path fill-rule="evenodd" clip-rule="evenodd" d="M28.9478 41.9574L28.2715 42.4321L27.596 42.9068V44.8057L28.2715 45.2804L28.9478 45.7551L29.6234 45.2804L30.2997 44.8057V42.9068L29.6234 42.4321L28.9478 41.9574ZM31.0551 36.8662L30.041 37.5783L29.027 38.2903V41.1386L30.041 41.8507L31.0551 42.5627L32.0692 41.8507L33.0832 41.1386V38.2903L32.0692 37.5783L31.0551 36.8662ZM25.926 9.47989L24.3054 10.618L22.6856 11.7562V16.3079L24.3054 17.446L25.926 18.5832L27.5459 17.446L29.1665 16.3079V11.7562L27.5459 10.618L25.926 9.47989ZM26.1643 19.3954L24.5436 20.5336L22.9238 21.6717V26.2224L24.5436 27.3606L26.1643 28.4988L27.7849 27.3606L29.4047 26.2224V21.6717L27.7849 20.5336L26.1643 19.3954ZM19.8816 23.0329L18.8675 23.7459L17.8535 24.4571V27.3053L18.8675 28.0183L19.8816 28.7304L20.8957 28.0183L21.9097 27.3053V24.4571L20.8957 23.7459L19.8816 23.0329ZM31.8905 12.7132L30.8764 13.4253L29.8624 14.1374V16.9856L30.8764 17.6977L31.8905 18.4098L32.9046 17.6977L33.9186 16.9856V14.1374L32.9046 13.4253L31.8905 12.7132ZM30.1805 6.08734L29.1665 6.7994L28.1524 7.51146V10.3597L29.1665 11.0718L30.1805 11.7838L31.1946 11.0718L32.2087 10.3597V7.51146L31.1946 6.7994L30.1805 6.08734ZM40.7177 7.48954L39.7037 8.2016L38.6896 8.91367V11.7619L39.7037 12.474L40.7177 13.186L41.7318 12.474L42.7451 11.7619V8.91367L41.7318 8.2016L40.7177 7.48954ZM29.1861 2.11236L28.5106 2.58707L27.8342 3.06178V4.96062L28.5106 5.43532L29.1861 5.91003L29.8624 5.43532L30.5387 4.96062V3.06178L29.8624 2.58707L29.1861 2.11236ZM27.3672 35.3201L26.9001 35.648L26.4331 35.9769V37.2885L26.9001 37.6174L27.3672 37.9453L27.8342 37.6174L28.3013 37.2885V35.9769L27.8342 35.648L27.3672 35.3201ZM39.2961 39.4971L38.7249 39.8984L38.1528 40.2998V41.905L38.7249 42.3063L39.2961 42.7086L39.8674 42.3063L40.4395 41.905V40.2998L39.8674 39.8984L39.2961 39.4971ZM21.8604 29.4672L21.2883 29.8685L20.717 30.2699V31.8761L21.2883 32.2774L21.8604 32.6787L22.4317 32.2774L23.0037 31.8761V30.2699L22.4317 29.8685L21.8604 29.4672ZM35.8668 33.5938L34.7932 34.3478L33.7196 35.1027V38.1178L34.7932 38.8718L35.8668 39.6258L36.9404 38.8718L38.0141 38.1178V35.1027L36.9404 34.3478L35.8668 33.5938ZM30.5786 27.3272L28.958 28.4654L27.3374 29.6035V34.1552L28.958 35.2924L30.5786 36.4306L32.1985 35.2924L33.8191 34.1552V29.6035L32.1985 28.4654L30.5786 27.3272ZM39.485 25.4894L37.8644 26.6276L36.2445 27.7657V32.3174L37.8644 33.4546L39.485 34.5928L41.1056 33.4546L42.7255 32.3174V27.7657L41.1056 26.6276L39.485 25.4894ZM42.2686 15.1878L40.648 16.325L39.0281 17.4632V22.0149L40.648 23.153L42.2686 24.2912L43.8892 23.153L45.509 22.0149V17.4632L43.8892 16.325L42.2686 15.1878ZM33.6396 18.2344L32.0198 19.3725L30.3992 20.5107V25.0624L32.0198 26.1996L33.6396 27.3377L35.2603 26.1996L36.8809 25.0624V20.5107L35.2603 19.3725L33.6396 18.2344ZM17.6748 11.9078L16.6607 12.6198L15.6467 13.3319V16.1801L16.6607 16.8922L17.6748 17.6043L18.6889 16.8922L19.7029 16.1801V13.3319L18.6889 12.6198L17.6748 11.9078ZM15.0707 25.7906L14.0566 26.5027L13.0426 27.2148V30.063L14.0566 30.7751L15.0707 31.4871L16.0847 30.7751L17.0988 30.063V27.2148L16.0847 26.5027L15.0707 25.7906ZM10.3687 21.6851L9.35462 22.3971L8.34056 23.1092V25.9574L9.35462 26.6695L10.3687 27.3816L11.3827 26.6695L12.3968 25.9574V23.1092L11.3827 22.3971L10.3687 21.6851ZM14.5934 21.6679L13.9171 22.1426L13.2416 22.6173V24.5162L13.9171 24.9909L14.5934 25.4656L15.2697 24.9909L15.9453 24.5162V22.6173L15.2697 22.1426L14.5934 21.6679ZM11.0144 12.189L9.39459 13.3262L7.77397 14.4643V19.016L9.39459 20.1542L11.0144 21.2923L12.635 20.1542L14.2557 19.016V14.4643L12.635 13.3262L11.0144 12.189ZM4.37442 15.5844L3.36036 16.2964L2.3463 17.0085V19.8577L3.36036 20.5698L4.37442 21.2818L5.38849 20.5698L6.40255 19.8577V17.0085L5.38849 16.2964L4.37442 15.5844ZM5.44805 21.1913L4.43398 21.9033L3.41992 22.6154V25.4637L4.43398 26.1757L5.44805 26.8878L6.46211 26.1757L7.47617 25.4637V22.6154L6.46211 21.9033L5.44805 21.1913ZM16.3434 2.36973L14.7227 3.50789L13.1021 4.64605V9.19773L14.7227 10.3359L16.3434 11.474L17.9632 10.3359L19.5838 9.19773V4.64605L17.9632 3.50789L16.3434 2.36973ZM23.8979 0L22.2773 1.13816L20.6574 2.27632V6.828L22.2773 7.9652L23.8979 9.10336L25.5185 7.9652L27.1384 6.828V2.27632L25.5185 1.13816L23.8979 0ZM33.2619 0.783556L32.5856 1.25827L31.9101 1.73297V3.63181L32.5856 4.10652L33.2619 4.58123L33.9382 4.10652L34.6137 3.63181V1.73297L33.9382 1.25827L33.2619 0.783556ZM37.6066 3.36395L37.0345 3.76526L36.4632 4.16657V5.77182L37.0345 6.17408L37.6066 6.57539L38.1779 6.17408L38.7491 5.77182V4.16657L38.1779 3.76526L37.6066 3.36395ZM36.9796 12.0365L35.9656 12.7485L34.9523 13.4606V16.3088L35.9656 17.0209L36.9796 17.733L37.9937 17.0209L39.0078 16.3088V13.4606L37.9937 12.7485L36.9796 12.0365ZM21.1543 9.21584L20.583 9.61715L20.0109 10.0194V11.6247L20.583 12.026L21.1543 12.4273L21.7256 12.026L22.2976 11.6247V10.0194L21.7256 9.61715L21.1543 9.21584ZM10.1798 6.67453L9.18535 7.37324L8.19166 8.07101V10.864L9.18535 11.5617L10.1798 12.2595L11.1735 11.5617L12.168 10.864V8.07101L11.1735 7.37324L10.1798 6.67453ZM5.60713 9.67339L4.61266 10.3721L3.61897 11.0699V13.8628L4.61266 14.5606L5.60713 15.2584L6.60082 14.5606L7.59529 13.8628V11.0699L6.60082 10.3721L5.60713 9.67339ZM44.8931 32.2898L44.4252 32.6186L43.9582 32.9465V34.2582L44.4252 34.587L44.8931 34.915L45.3602 34.587L45.8272 34.2582V32.9465L45.3602 32.6186L44.8931 32.2898ZM10.0207 3.3182L9.55367 3.64611L9.08582 3.97497V5.28662L9.55367 5.61453L10.0207 5.9434L10.4878 5.61453L10.9549 5.28662V3.97497L10.4878 3.64611L10.0207 3.3182ZM20.0807 16.9208L19.0666 17.6329L18.0525 18.3449V21.1932L19.0666 21.9062L20.0807 22.6173L21.0947 21.9062L22.108 21.1932V18.3449L21.0947 17.6329L20.0807 16.9208ZM34.9123 6.37712L33.8983 7.08918L32.8842 7.80124V10.6495L33.8983 11.3616L34.9123 12.0736L35.9264 11.3616L36.9397 10.6495V7.80124L35.9264 7.08918L34.9123 6.37712ZM15.8661 18.1734L15.1898 18.6481L14.5135 19.1228V21.0216L15.1898 21.4963L15.8661 21.971L16.5416 21.4963L17.2179 21.0216V19.1228L16.5416 18.6481L15.8661 18.1734ZM0.93413 21.238L0.467065 21.5659L0 21.8938V23.2064L0.467065 23.5343L0.93413 23.8632L1.40198 23.5343L1.86904 23.2064V21.8938L1.40198 21.5659L0.93413 21.238ZM68.7275 28.9573H71.381V11.8639H68.3459L63.9424 19.2124L59.5398 11.8639H56.4835V28.9573H59.1378V16.53L63.6211 23.9766H64.1438L68.7275 16.5548V28.9573ZM76.1457 16.8512V28.9573H73.6936V16.8512H76.1457ZM73.4718 13.5016C73.4901 14.4582 74.1329 15.2222 74.9196 15.2222C75.7063 15.2222 76.3492 14.4582 76.3675 13.5016C76.3492 12.5449 75.7063 11.781 74.9196 11.781C74.1329 11.781 73.4901 12.5449 73.4718 13.5016ZM88.1083 28.9563V22.624C88.1083 18.833 86.2385 16.7063 83.9063 16.7063C82.6605 16.7311 81.4799 17.3877 80.6494 18.5175L80.4927 16.8789H78.2984V28.9573H80.7317V22.7946C80.6861 21.9344 80.9303 21.0887 81.4081 20.4522C81.8859 19.8156 82.5561 19.443 83.2645 19.4202C84.8318 19.4202 85.657 20.8148 85.657 22.6488V28.9573L88.1083 28.9563ZM95.0242 19.3954C96.6286 19.3954 97.9292 20.9775 97.9292 22.929C97.9292 24.8806 96.6286 26.4627 95.0242 26.4627C94.2573 26.4734 93.5208 26.0991 92.9881 25.428C92.4554 24.757 92.1736 23.8485 92.2093 22.9166C92.1638 21.9839 92.4429 21.0709 92.9784 20.401C93.5139 19.7311 94.2564 19.3662 95.0242 19.3954ZM98.0601 11.8649V18.5375C97.4771 17.2907 95.8486 16.6062 94.8032 16.6062C91.9083 16.6062 89.7564 18.7586 89.7564 22.9157C89.6624 24.6043 90.1673 26.261 91.1436 27.467C92.1199 28.6729 93.474 29.3126 94.8635 29.2242C96.1347 29.3122 97.3497 28.5781 98.0601 27.2929L98.2169 28.9554H100.509V11.8639L98.0601 11.8649ZM108.133 26.3664C107.381 26.3891 106.654 26.0358 106.122 25.3889C105.59 24.742 105.299 23.858 105.318 22.9433C105.318 21.0523 106.578 19.5193 108.133 19.5193C109.687 19.5193 110.948 21.0523 110.948 22.9433C110.966 23.858 110.675 24.7417 110.143 25.3886C109.611 26.0354 108.885 26.3888 108.133 26.3664ZM105.097 33.9922V27.5389C105.802 28.86 107.348 29.2547 108.394 29.2547C111.571 29.2547 113.4 26.4674 113.4 22.9462C113.464 21.2714 112.953 19.6397 111.988 18.4425C111.023 17.2454 109.691 16.5908 108.314 16.6358C107.05 16.6151 105.854 17.3339 105.101 18.568L104.94 16.9056H102.648V33.9951L105.097 33.9922ZM119.873 16.6539C118.493 16.5964 117.155 17.2418 116.182 18.4349C115.209 19.6279 114.689 21.2604 114.747 22.9395C114.724 25.199 115.702 27.2988 117.307 28.4367C118.912 29.5745 120.896 29.5745 122.501 28.4367C124.106 27.2988 125.083 25.199 125.061 22.9395C125.105 21.2523 124.572 19.6184 123.589 18.427C122.606 17.2357 121.26 16.5936 119.873 16.6539ZM119.894 19.3687C120.642 19.402 121.348 19.7984 121.854 20.4694C122.361 21.1403 122.625 22.0299 122.588 22.9395C122.669 24.1729 122.174 25.3573 121.307 26.0043C120.44 26.6513 119.348 26.6513 118.481 26.0043C117.613 25.3573 117.118 24.1729 117.2 22.9395C117.141 22.0233 117.398 21.1186 117.908 20.4416C118.419 19.7645 119.138 19.376 119.894 19.3687ZM131.414 16.6539C130.033 16.5964 128.695 17.2418 127.722 18.4349C126.749 19.6279 126.229 21.2604 126.287 22.9395C126.264 25.199 127.242 27.2988 128.847 28.4367C130.452 29.5745 132.436 29.5745 134.041 28.4367C135.646 27.2988 136.624 25.199 136.601 22.9395C136.644 21.2528 136.11 19.6199 135.128 18.4289C134.145 17.238 132.8 16.5954 131.414 16.6539ZM131.433 19.3687C132.182 19.4018 132.888 19.7981 133.394 20.4691C133.9 21.1401 134.165 22.0299 134.128 22.9395C134.209 24.1729 133.714 25.3573 132.847 26.0043C131.979 26.6513 130.887 26.6513 130.02 26.0043C129.153 25.3573 128.658 24.1729 128.739 22.9395C128.68 22.0233 128.937 21.1186 129.448 20.4416C129.959 19.7645 130.678 19.376 131.433 19.3687ZM138.289 11.8611V28.9573H140.718V11.8639L138.289 11.8611Z" fill="white"/>
</svg>
