<svg width="289" height="68" viewBox="0 0 289 68" fill="none" xmlns="http://www.w3.org/2000/svg">
<path fill-rule="evenodd" clip-rule="evenodd" d="M51.4093 62.3551L50.2071 63.0592L49.0087 63.7652V65.1772V66.5873L50.2071 67.2934L51.4093 67.9994L52.6077 67.2934L53.8099 66.5873V65.1772V63.7652L52.6077 63.0592L51.4093 62.3551Z" fill="white"/>
<path fill-rule="evenodd" clip-rule="evenodd" d="M55.1507 54.7891L53.3493 55.8462L51.5498 56.9052V59.0214V61.1375L53.3493 62.1965L55.1507 63.2536L56.9522 62.1965L58.7536 61.1375V59.0214V56.9052L56.9522 55.8462L55.1507 54.7891Z" fill="white"/>
<path fill-rule="evenodd" clip-rule="evenodd" d="M46.0416 14.0885L43.1651 15.779L40.2866 17.4715V20.8526V24.2356L43.1651 25.9262L46.0416 27.6167L48.9181 25.9262L51.7965 24.2356V20.8526V17.4715L48.9181 15.779L46.0416 14.0885Z" fill="white"/>
<path fill-rule="evenodd" clip-rule="evenodd" d="M46.4655 28.8258L43.5871 30.5163L40.7106 32.2088V35.5899V38.971L43.5871 40.6615L46.4655 42.354L49.344 40.6615L52.2205 38.971V35.5899V32.2088L49.344 30.5163L46.4655 28.8258Z" fill="white"/>
<path fill-rule="evenodd" clip-rule="evenodd" d="M35.3081 34.2297L33.5066 35.2888L31.7052 36.3458V38.462V40.58L33.5066 41.6391L35.3081 42.6961L37.1095 41.6391L38.909 40.58V38.462V36.3458L37.1095 35.2888L35.3081 34.2297Z" fill="white"/>
<path fill-rule="evenodd" clip-rule="evenodd" d="M56.6343 18.8956L54.8329 19.9547L53.0334 21.0117V23.1279V25.244L54.8329 26.303L56.6343 27.362L58.4358 26.303L60.2372 25.244V23.1279V21.0117L58.4358 19.9547L56.6343 18.8956Z" fill="white"/>
<path fill-rule="evenodd" clip-rule="evenodd" d="M53.598 9.04602L51.7966 10.1031L49.9971 11.1621V13.2782V15.3944L51.7966 16.4534L53.598 17.5124L55.3994 16.4534L57.1989 15.3944V13.2782V11.1621L55.3994 10.1031L53.598 9.04602Z" fill="white"/>
<path fill-rule="evenodd" clip-rule="evenodd" d="M72.3117 11.1313L70.5103 12.1904L68.7089 13.2494V15.3655V17.4817L70.5103 18.5407L72.3117 19.5978L74.1112 18.5407L75.9107 17.4817V15.3655V13.2494L74.1112 12.1904L72.3117 11.1313Z" fill="white"/>
<path fill-rule="evenodd" clip-rule="evenodd" d="M51.8312 3.13983L50.6328 3.8439L49.4306 4.54992V5.96197V7.37206L50.6328 8.07808L51.8312 8.78411L53.0335 8.07808L54.2338 7.37206V5.96197V4.54992L53.0335 3.8439L51.8312 3.13983Z" fill="white"/>
<path fill-rule="evenodd" clip-rule="evenodd" d="M48.602 52.4911L47.7716 52.9794L46.9432 53.4678V54.4425V55.4172L47.7716 55.9055L48.602 56.3919L49.4305 55.9055L50.2609 55.4172V54.4425V53.4678L49.4305 52.9794L48.602 52.4911Z" fill="white"/>
<path fill-rule="evenodd" clip-rule="evenodd" d="M69.7858 58.6976L68.7723 59.2938L67.7551 59.892V61.0844V62.2768L68.7723 62.873L69.7858 63.4711L70.8011 62.873L71.8165 62.2768V61.0844V59.892L70.8011 59.2938L69.7858 58.6976Z" fill="white"/>
<path fill-rule="evenodd" clip-rule="evenodd" d="M38.8223 43.7928L37.807 44.389L36.7916 44.9852V46.1796V47.372L37.807 47.9682L38.8223 48.5644L39.8358 47.9682L40.853 47.372V46.1796V44.9852L39.8358 44.389L38.8223 43.7928Z" fill="white"/>
<path fill-rule="evenodd" clip-rule="evenodd" d="M63.6955 49.9265L61.79 51.0463L59.8826 52.1681V54.4078V56.6494L61.79 57.7712L63.6955 58.891L65.6029 57.7712L67.5103 56.6494V54.4078V52.1681L65.6029 51.0463L63.6955 49.9265Z" fill="white"/>
<path fill-rule="evenodd" clip-rule="evenodd" d="M54.305 40.6115L51.4266 42.3039L48.5482 43.9945V47.3756V50.7586L51.4266 52.4491L54.305 54.1416L57.1815 52.4491L60.06 50.7586V47.3756V43.9945L57.1815 42.3039L54.305 40.6115Z" fill="white"/>
<path fill-rule="evenodd" clip-rule="evenodd" d="M70.121 37.8839L67.2445 39.5744L64.3661 41.2649V44.648V48.031L67.2445 49.7196L70.121 51.4121L72.9995 49.7196L75.876 48.031V44.648V41.2649L72.9995 39.5744L70.121 37.8839Z" fill="white"/>
<path fill-rule="evenodd" clip-rule="evenodd" d="M75.0649 22.5726L72.1864 24.2632L69.3099 25.9537V29.3367V32.7198L72.1864 34.4103L75.0649 36.1028L77.9433 34.4103L80.8198 32.7198V29.3367V25.9537L77.9433 24.2632L75.0649 22.5726Z" fill="white"/>
<path fill-rule="evenodd" clip-rule="evenodd" d="M59.7402 27.099L56.8637 28.7895L53.9872 30.482V33.8631V37.2461L56.8637 38.9367L59.7402 40.6272L62.6187 38.9367L65.4971 37.2461V33.8631V30.482L62.6187 28.7895L59.7402 27.099Z" fill="white"/>
<path fill-rule="evenodd" clip-rule="evenodd" d="M31.3893 17.6967L29.5879 18.7538L27.7864 19.8128V21.9289V24.0451L29.5879 25.1041L31.3893 26.1612L33.1888 25.1041L34.9902 24.0451V21.9289V19.8128L33.1888 18.7538L31.3893 17.6967Z" fill="white"/>
<path fill-rule="evenodd" clip-rule="evenodd" d="M26.7633 38.3303L24.9638 39.3873L23.1624 40.4464V42.5625V44.6786L24.9638 45.7376L26.7633 46.7967L28.5647 45.7376L30.3662 44.6786V42.5625V40.4464L28.5647 39.3873L26.7633 38.3303Z" fill="white"/>
<path fill-rule="evenodd" clip-rule="evenodd" d="M18.4131 32.2279L16.6136 33.285L14.8121 34.344V36.4601V38.5762L16.6136 39.6353L18.4131 40.6924L20.2145 39.6353L22.0159 38.5762V36.4601V34.344L20.2145 33.285L18.4131 32.2279Z" fill="white"/>
<path fill-rule="evenodd" clip-rule="evenodd" d="M25.9175 32.2033L24.7153 32.9074L23.515 33.6134V35.0254V36.4355L24.7153 37.1416L25.9175 37.8456L27.1178 37.1416L28.3181 36.4355V35.0254V33.6134L27.1178 32.9074L25.9175 32.2033Z" fill="white"/>
<path fill-rule="evenodd" clip-rule="evenodd" d="M19.5615 18.1141L16.683 19.8027L13.8065 21.4952V24.8782V28.2593L16.683 29.9518L19.5615 31.6424L22.438 29.9518L25.3164 28.2593V24.8782V21.4952L22.438 19.8027L19.5615 18.1141Z" fill="white"/>
<path fill-rule="evenodd" clip-rule="evenodd" d="M7.76836 23.1619L5.96693 24.219L4.16742 25.278V27.3961V29.5122L5.96693 30.5693L7.76836 31.6283L9.56979 30.5693L11.3712 29.5122V27.3961V25.278L9.56979 24.219L7.76836 23.1619Z" fill="white"/>
<path fill-rule="evenodd" clip-rule="evenodd" d="M9.67562 31.4931L7.87419 32.5521L6.07275 33.6112V35.7273V37.8434L7.87419 38.9024L9.67562 39.9595L11.4751 38.9024L13.2766 37.8434V35.7273V33.6112L11.4751 32.5521L9.67562 31.4931Z" fill="white"/>
<path fill-rule="evenodd" clip-rule="evenodd" d="M29.0254 3.52289L26.1469 5.21343L23.2685 6.90592V10.287V13.67L26.1469 15.3606L29.0254 17.0531L31.9019 15.3606L34.7784 13.67V10.287V6.90592L31.9019 5.21343L29.0254 3.52289Z" fill="white"/>
<path fill-rule="evenodd" clip-rule="evenodd" d="M42.4406 0L39.5621 1.69054L36.6856 3.38304V6.76411V10.1471L39.5621 11.8377L42.4406 13.5282L45.319 11.8377L48.1955 10.1471V6.76411V3.38304L45.319 1.69054L42.4406 0Z" fill="white"/>
<path fill-rule="evenodd" clip-rule="evenodd" d="M59.0696 1.16516L57.8693 1.86922L56.6689 2.57525V3.9873V5.39739L57.8693 6.10341L59.0696 6.80944L60.2718 6.10341L61.4702 5.39739V3.9873V2.57525L60.2718 1.86922L59.0696 1.16516Z" fill="white"/>
<path fill-rule="evenodd" clip-rule="evenodd" d="M66.7859 4.99829L65.7705 5.59449L64.7552 6.19069V7.38505V8.57745L65.7705 9.17561L66.7859 9.7718L67.8012 9.17561L68.8147 8.57745V7.38505V6.19069L67.8012 5.59449L66.7859 4.99829Z" fill="white"/>
<path fill-rule="evenodd" clip-rule="evenodd" d="M65.6723 17.887L63.8709 18.946L62.0714 20.0031V22.1192V24.2373L63.8709 25.2943L65.6723 26.3534L67.4738 25.2943L69.2733 24.2373V22.1192V20.0031L67.4738 18.946L65.6723 17.887Z" fill="white"/>
<path fill-rule="evenodd" clip-rule="evenodd" d="M37.5681 13.6964L36.5527 14.2925L35.5374 14.8907V16.0831V17.2755L36.5527 17.8717L37.5681 18.4679L38.5834 17.8717L39.5988 17.2755V16.0831V14.8907L38.5834 14.2925L37.5681 13.6964Z" fill="white"/>
<path fill-rule="evenodd" clip-rule="evenodd" d="M18.0779 9.91998L16.3131 10.9574L14.5483 11.9949V14.0698V16.1467L16.3131 17.1822L18.0779 18.2197L19.8428 17.1822L21.6095 16.1467V14.0698V11.9949L19.8428 10.9574L18.0779 9.91998Z" fill="white"/>
<path fill-rule="evenodd" clip-rule="evenodd" d="M9.95708 14.376L8.19226 15.4154L6.42743 16.4529V18.5278V20.6027L8.19226 21.6402L9.95708 22.6776L11.7219 21.6402L13.4887 20.6027V18.5278V16.4529L11.7219 15.4154L9.95708 14.376Z" fill="white"/>
<path fill-rule="evenodd" clip-rule="evenodd" d="M79.7254 47.9883L78.8951 48.4767L78.0666 48.9631V49.9378V50.9125L78.8951 51.4028L79.7254 51.8891L80.5558 51.4028L81.3843 50.9125V49.9378V48.9631L80.5558 48.4767L79.7254 47.9883Z" fill="white"/>
<path fill-rule="evenodd" clip-rule="evenodd" d="M17.7966 4.92914L16.9662 5.41747L16.1358 5.90581V6.88051V7.85522L16.9662 8.34355L17.7966 8.83189L18.6251 8.34355L19.4554 7.85522V6.88051V5.90581L18.6251 5.41747L17.7966 4.92914Z" fill="white"/>
<path fill-rule="evenodd" clip-rule="evenodd" d="M35.6608 25.1458L33.8613 26.2048L32.0599 27.2638V29.3799V31.4961L33.8613 32.5551L35.6608 33.6122L37.4623 32.5551L39.2618 31.4961V29.3799V27.2638L37.4623 26.2048L35.6608 25.1458Z" fill="white"/>
<path fill-rule="evenodd" clip-rule="evenodd" d="M62 9.47644L60.2005 10.5355L58.3991 11.5945V13.7106V15.8267L60.2005 16.8858L62 17.9429L63.8015 16.8858L65.601 15.8267V13.7106V11.5945L63.8015 10.5355L62 9.47644Z" fill="white"/>
<path fill-rule="evenodd" clip-rule="evenodd" d="M28.1775 27.0093L26.9753 27.7133L25.775 28.4194V29.8295V31.2415L26.9753 31.9475L28.1775 32.6516L29.3759 31.9475L30.5781 31.2415V29.8295V28.4194L29.3759 27.7133L28.1775 27.0093Z" fill="white"/>
<path fill-rule="evenodd" clip-rule="evenodd" d="M1.65886 31.5626L0.830393 32.049L0 32.5373V33.514V34.4887L0.830393 34.9751L1.65886 35.4634L2.48925 34.9751L3.31965 34.4887V33.514V32.5373L2.48925 32.049L1.65886 31.5626Z" fill="white"/>
<path fill-rule="evenodd" clip-rule="evenodd" d="M123.476 40.3443H129.574V7.46905H122.6L112.479 21.6033L102.36 7.46905H95.3373V40.3443H101.437V16.4434L111.747 30.7659H112.947L123.482 16.4905L123.476 40.3443ZM140.525 17.0612V40.3443H134.89V17.0612H140.525ZM134.379 10.6187C134.379 11.517 134.73 12.3785 135.354 13.0137C135.978 13.6488 136.824 14.0057 137.707 14.0057C138.589 14.0057 139.435 13.6488 140.059 13.0137C140.683 12.3785 141.034 11.517 141.034 10.6187C141.034 9.72043 140.683 8.85895 140.059 8.22377C139.435 7.58859 138.589 7.23175 137.707 7.23175C136.824 7.23175 135.978 7.58859 135.354 8.22377C134.73 8.85895 134.379 9.72043 134.379 10.6187ZM168.017 40.3424V28.1634C168.017 20.8737 163.721 16.7886 158.361 16.7886C156.944 16.8121 155.548 17.1337 154.26 17.7331C152.972 18.3325 151.819 19.1968 150.875 20.2716L150.515 17.12H145.473V40.3443H151.06V28.4929C151.008 27.6741 151.119 26.8529 151.386 26.0787C151.653 25.3044 152.071 24.5929 152.614 23.9868C153.157 23.3808 153.815 22.8925 154.549 22.5514C155.282 22.2102 156.075 22.0232 156.881 22.0014C160.484 22.0014 162.38 24.6843 162.38 28.2125V40.3443L168.017 40.3424ZM183.912 21.9543C185.663 21.9846 187.333 22.714 188.56 23.9853C189.788 25.2566 190.476 26.968 190.476 28.7508C190.476 30.5336 189.788 32.245 188.56 33.5163C187.333 34.7876 185.663 35.517 183.912 35.5473C183.04 35.5568 182.176 35.385 181.372 35.0425C180.567 34.6999 179.84 34.1939 179.235 33.5553C178.629 32.9167 178.159 32.159 177.851 31.3286C177.543 30.4983 177.406 29.6128 177.446 28.7263C177.396 27.8403 177.528 26.9533 177.832 26.1218C178.137 25.2903 178.609 24.5325 179.217 23.8965C179.825 23.2605 180.556 22.7603 181.365 22.4276C182.173 22.0949 183.041 21.9371 183.912 21.9641V21.9543ZM190.888 7.47101V20.305C190.003 19.1438 188.868 18.2051 187.571 17.5611C186.273 16.9171 184.847 16.585 183.403 16.5905C176.751 16.5905 171.805 20.7306 171.805 28.7243C171.697 30.3301 171.925 31.9409 172.475 33.4502C173.024 34.9595 173.882 36.333 174.991 37.4799C176.1 38.6267 177.436 39.5209 178.91 40.1033C180.384 40.6856 181.963 40.9429 183.542 40.8582C184.978 40.9414 186.41 40.6427 187.699 39.9914C188.987 39.3401 190.086 38.3587 190.888 37.1437L191.249 40.3404H196.52V7.46905L190.888 7.47101ZM214.037 35.361C213.182 35.3825 212.332 35.2269 211.537 34.9037C210.743 34.5805 210.021 34.0963 209.416 33.4807C208.811 32.865 208.335 32.1306 208.018 31.3221C207.7 30.5136 207.547 29.6478 207.568 28.7773C207.568 27.0307 208.249 25.3556 209.463 24.1205C210.676 22.8855 212.321 22.1916 214.037 22.1916C215.753 22.1916 217.399 22.8855 218.612 24.1205C219.825 25.3556 220.507 27.0307 220.507 28.7773C220.528 29.6478 220.374 30.5134 220.057 31.3218C219.739 32.1302 219.263 32.8644 218.658 33.48C218.053 34.0956 217.331 34.5798 216.537 34.9031C215.743 35.2264 214.893 35.3822 214.037 35.361ZM207.061 50.0286V37.6163C208.681 40.1659 212.234 40.917 214.637 40.917C221.939 40.917 226.145 35.5551 226.145 28.7832C226.217 27.1897 225.967 25.5981 225.408 24.1078C224.849 22.6175 223.995 21.2605 222.897 20.1215C221.8 18.9826 220.484 18.0863 219.031 17.4885C217.578 16.8907 216.02 16.6044 214.453 16.6474C213.022 16.6283 211.606 16.9552 210.322 17.6013C209.038 18.2473 207.923 19.1941 207.069 20.3638L206.701 17.1651H201.433V50.0326L207.061 50.0286ZM241.02 16.6886C239.45 16.6333 237.886 16.909 236.426 17.4982C234.966 18.0875 233.641 18.9776 232.535 20.1127C231.429 21.2478 230.565 22.6034 229.997 24.0945C229.43 25.5855 229.172 27.1798 229.239 28.7773C229.198 30.3871 229.475 31.9888 230.052 33.488C230.63 34.9873 231.496 36.3537 232.6 37.5068C233.705 38.6599 235.024 39.5763 236.482 40.202C237.94 40.8277 239.506 41.1501 241.088 41.1501C242.67 41.1501 244.236 40.8277 245.693 40.202C247.151 39.5763 248.471 38.6599 249.575 37.5068C250.679 36.3537 251.546 34.9873 252.123 33.488C252.7 31.9888 252.977 30.3871 252.937 28.7773C252.988 27.1724 252.715 25.5738 252.134 24.0808C251.553 22.5878 250.677 21.2322 249.561 20.0982C248.444 18.9641 247.11 18.0757 245.642 17.4882C244.174 16.9006 242.603 16.6265 241.026 16.6827L241.02 16.6886ZM241.068 21.9092C241.919 21.9409 242.756 22.1442 243.529 22.5074C244.302 22.8705 244.997 23.3863 245.572 24.0248C246.148 24.6633 246.594 25.4119 246.883 26.227C247.173 27.0421 247.3 27.9076 247.259 28.7734C247.328 29.6438 247.219 30.5194 246.94 31.345C246.66 32.1706 246.215 32.9282 245.633 33.5701C245.052 34.212 244.346 34.7244 243.56 35.0748C242.774 35.4252 241.925 35.6061 241.068 35.6061C240.21 35.6061 239.361 35.4252 238.575 35.0748C237.789 34.7244 237.083 34.212 236.502 33.5701C235.92 32.9282 235.475 32.1706 235.195 31.345C234.916 30.5194 234.807 29.6438 234.876 28.7734C234.81 27.9018 234.92 27.0256 235.2 26.1994C235.481 25.3731 235.925 24.6144 236.506 23.9705C237.087 23.3266 237.792 22.8114 238.577 22.4567C239.361 22.1021 240.21 21.9157 241.068 21.9092ZM267.543 16.6886C265.973 16.6333 264.409 16.909 262.949 17.4982C261.488 18.0875 260.164 18.9776 259.057 20.1127C257.951 21.2478 257.087 22.6034 256.52 24.0945C255.953 25.5855 255.694 27.1798 255.761 28.7773C255.721 30.3871 255.998 31.9888 256.575 33.488C257.152 34.9873 258.019 36.3537 259.123 37.5068C260.227 38.6599 261.547 39.5763 263.005 40.202C264.462 40.8277 266.028 41.1501 267.61 41.1501C269.192 41.1501 270.758 40.8277 272.216 40.202C273.674 39.5763 274.993 38.6599 276.098 37.5068C277.202 36.3537 278.068 34.9873 278.646 33.488C279.223 31.9888 279.5 30.3871 279.459 28.7773C279.508 27.1723 279.232 25.5743 278.65 24.0821C278.067 22.5899 277.19 21.2353 276.073 20.1021C274.955 18.9689 273.621 18.0813 272.153 17.4941C270.684 16.907 269.114 16.6328 267.537 16.6886H267.543ZM267.587 21.9092C268.438 21.9406 269.275 22.1438 270.048 22.5068C270.821 22.8699 271.516 23.3856 272.092 24.0242C272.668 24.6627 273.114 25.4113 273.404 26.2266C273.693 27.0418 273.821 27.9075 273.779 28.7734C273.849 29.6438 273.74 30.5194 273.46 31.345C273.18 32.1706 272.736 32.9282 272.154 33.5701C271.572 34.212 270.866 34.7244 270.08 35.0748C269.295 35.4252 268.446 35.6061 267.588 35.6061C266.73 35.6061 265.882 35.4252 265.096 35.0748C264.31 34.7244 263.604 34.212 263.022 33.5701C262.44 32.9282 261.996 32.1706 261.716 31.345C261.436 30.5194 261.328 29.6438 261.397 28.7734C261.33 27.902 261.44 27.026 261.721 26.1998C262.001 25.3737 262.445 24.6151 263.026 23.9712C263.606 23.3274 264.311 22.8121 265.096 22.4573C265.88 22.1026 266.729 21.916 267.587 21.9092ZM283.343 7.46905V40.3443H288.931V7.46905H283.343Z" fill="white"/>
<path d="M102.583 55.5697H101.042C101.014 55.3422 100.941 55.1227 100.828 54.924C100.715 54.7253 100.565 54.5514 100.386 54.4124C100.207 54.2734 100.002 54.172 99.7839 54.1141C99.5658 54.0562 99.3386 54.043 99.1155 54.0753C98.0501 54.0753 97.3622 54.5636 97.3622 55.3834C97.3622 56.0718 97.867 56.4012 98.7899 56.5876L99.9074 56.8111C101.595 57.1563 102.557 57.8427 102.557 59.2842C102.557 60.9629 101.192 62.0867 99.1405 62.0867C98.6892 62.1421 98.2315 62.1048 97.7946 61.977C97.3576 61.8491 96.9503 61.6334 96.5968 61.3424C96.2432 61.0515 95.9506 60.6913 95.7363 60.2832C95.5219 59.8751 95.3902 59.4273 95.3489 58.9665H96.8902C96.9887 59.5036 97.2862 59.9816 97.7211 60.3017C98.1561 60.6219 98.6953 60.7596 99.2272 60.6864C100.306 60.6864 100.961 60.2236 100.961 59.4685C100.961 58.9939 100.663 58.5311 99.6627 58.3585L98.208 58.0682C96.4933 57.7368 95.7034 56.8503 95.7034 55.5187C95.7034 53.838 97.0154 52.7162 99.0038 52.7162C99.8501 52.6121 100.702 52.8541 101.374 53.3891C102.045 53.9241 102.48 54.7084 102.583 55.5697Z" fill="white"/>
<path d="M117.118 61.9029H115.548V56.4292L113.08 60.4614H112.132L109.627 56.3763L109.654 61.9029H108.086V52.9128H109.203L112.606 58.5042L116.01 52.9128H117.126L117.118 61.9029Z" fill="white"/>
<path d="M124.692 59.9069L123.873 61.9034H122.197L126.081 52.8604H127.536L131.389 61.9034H129.74L128.909 59.9069H124.692ZM126.796 54.7902L125.303 58.4438H128.316L126.796 54.7902Z" fill="white"/>
<path d="M138.03 58.9424V61.9038H136.474V52.9138H140.096C140.519 52.8627 140.948 52.9019 141.356 53.0289C141.763 53.1559 142.14 53.368 142.463 53.6516C142.786 53.9352 143.047 54.284 143.23 54.676C143.412 55.0679 143.513 55.4944 143.525 55.9281C143.536 56.5551 143.343 57.1682 142.976 57.6723C142.61 58.1765 142.09 58.5436 141.498 58.7169L144.059 61.9038H142.161L139.772 58.9424H138.03ZM140.044 57.4735C141.136 57.4735 141.993 56.8852 141.993 55.9281C141.993 54.9711 141.136 54.3807 140.044 54.3807H138.03V57.4735H140.044Z" fill="white"/>
<path d="M152.683 54.3798V61.9029H151.124V54.3798H148.041V52.9128H155.748V54.3798H152.683Z" fill="white"/>
<path d="M162.347 56.7332H166.684V58.2002H162.347V60.434H167.204V61.9029H160.788V52.9128H167.204V54.3798H162.347V56.7332Z" fill="white"/>
<path d="M174.171 58.9424V61.9038H172.629V52.9138H176.253C176.677 52.8627 177.106 52.9019 177.513 53.0289C177.921 53.1559 178.298 53.368 178.621 53.6516C178.943 53.9352 179.204 54.284 179.387 54.676C179.57 55.0679 179.671 55.4944 179.683 55.9281C179.692 56.5574 179.497 57.1722 179.127 57.6767C178.757 58.1811 178.234 58.5469 177.639 58.7169L180.197 61.9038H178.301L175.912 58.9424H174.171ZM176.184 57.4735C177.276 57.4735 178.132 56.8852 178.132 55.9281C178.132 54.9711 177.276 54.3807 176.184 54.3807H174.171V57.4735H176.184Z" fill="white"/>
<path d="M195.942 54.3798V61.9029H194.383V54.3798H191.318V52.9128H199.025V54.3798H195.942Z" fill="white"/>
<path d="M212.34 57.4067C212.34 58.3326 212.07 59.2377 211.565 60.0076C211.059 60.7774 210.341 61.3774 209.501 61.7317C208.661 62.0861 207.736 62.1788 206.844 61.9981C205.952 61.8175 205.132 61.3716 204.489 60.7169C203.846 60.0622 203.408 59.2281 203.23 58.32C203.053 57.4119 203.144 56.4707 203.492 55.6153C203.84 54.7599 204.43 54.0288 205.186 53.5144C205.942 53 206.831 52.7254 207.741 52.7254C208.345 52.7241 208.944 52.8443 209.502 53.0791C210.061 53.3139 210.568 53.6587 210.996 54.0937C211.423 54.5286 211.762 55.0452 211.992 55.6137C212.223 56.1823 212.341 56.7916 212.34 57.4067ZM210.768 57.4067C210.744 56.8046 210.547 56.2229 210.201 55.7339C209.855 55.2448 209.376 54.8699 208.823 54.6558C208.269 54.4417 207.666 54.3978 207.089 54.5296C206.511 54.6614 205.984 54.963 205.573 55.397C205.163 55.831 204.886 56.3782 204.779 56.9708C204.671 57.5633 204.737 58.175 204.967 58.7298C205.198 59.2847 205.584 59.7582 206.077 60.0917C206.57 60.4251 207.149 60.6038 207.741 60.6054C208.148 60.603 208.55 60.5178 208.925 60.3548C209.299 60.1918 209.637 59.9544 209.92 59.6564C210.203 59.3584 210.425 59.0059 210.572 58.6196C210.719 58.2333 210.789 57.8209 210.777 57.4067H210.768Z" fill="white"/>
<path d="M226.628 61.9018H225.407L225.303 60.474C224.971 60.9976 224.509 61.4226 223.964 61.7057C223.419 61.9888 222.81 62.1201 222.199 62.0861C221.602 62.0992 221.008 61.9909 220.453 61.7676C219.898 61.5443 219.392 61.2104 218.965 60.7856C218.538 60.3608 218.198 59.8536 217.966 59.2936C217.734 58.7337 217.614 58.1322 217.613 57.5244C217.594 56.8944 217.701 56.267 217.927 55.6802C218.153 55.0934 218.494 54.5595 218.929 54.1108C219.364 53.6621 219.883 53.3079 220.457 53.0698C221.03 52.8317 221.645 52.7145 222.264 52.7254C223.239 52.684 224.198 52.9882 224.978 53.5862C225.757 54.1842 226.308 55.0389 226.538 56.0045H224.875C224.69 55.4651 224.337 55.0014 223.871 54.6831C223.405 54.3648 222.85 54.2091 222.289 54.2394C221.869 54.2277 221.452 54.3055 221.064 54.4679C220.675 54.6303 220.325 54.8737 220.034 55.1824C219.744 55.4911 219.52 55.8583 219.378 56.2603C219.235 56.6623 219.177 57.0903 219.207 57.5166C219.198 57.9188 219.27 58.3185 219.418 58.6915C219.566 59.0645 219.787 59.403 220.068 59.6862C220.348 59.9695 220.683 60.1917 221.05 60.3392C221.418 60.4868 221.811 60.5567 222.206 60.5446C222.83 60.5702 223.443 60.3728 223.939 59.9867C224.435 59.6005 224.782 59.05 224.921 58.4305H222.089V56.9616H226.636V61.8939L226.628 61.9018Z" fill="white"/>
<path d="M234.2 56.7332H238.539V58.2002H234.2V60.434H239.057V61.9029H232.641V52.9128H239.057V54.3798H234.2V56.7332Z" fill="white"/>
<path d="M248.155 54.3798V61.9029H246.613V54.3798H243.531V52.9128H251.237V54.3798H248.155Z" fill="white"/>
<path d="M263.776 61.9029H262.235V58.2276H257.827V61.9029H256.268V52.9128H257.827V56.7587H262.231V52.9128H263.772L263.776 61.9029Z" fill="white"/>
<path d="M271.14 56.7332H275.479V58.2002H271.14V60.434H275.999V61.9029H269.581V52.9128H275.999V54.3798H271.14V56.7332Z" fill="white"/>
<path d="M282.973 58.9424V61.9038H281.415V52.9138H285.039C285.462 52.8627 285.891 52.9019 286.298 53.0289C286.706 53.156 287.083 53.3681 287.405 53.6517C287.728 53.9353 287.989 54.2842 288.171 54.6761C288.354 55.0681 288.455 55.4945 288.466 55.9281C288.476 56.5548 288.284 57.1675 287.918 57.6715C287.552 58.1756 287.033 58.543 286.441 58.7169L289 61.9038H287.104L284.713 58.9424H282.973ZM284.987 57.4735C286.077 57.4735 286.935 56.8852 286.935 55.9281C286.935 54.9711 286.077 54.3807 284.987 54.3807H282.973V57.4735H284.987Z" fill="white"/>
</svg>
